# xmcd
#
# Track frame offsets:
#	150
#	13472
#	27565
#	43678
#	55581
#	69745
#	82699
#	95084
#	115149
#	126920
#
# Disc length: 1852 seconds
#
# Revision: 0
# Processed by: cddbd v1.4PL0 Copyright (c) Steve Scherf et al.
# Submitted via: audiograbber 1.80
#
DISCID=86073a0a
DTITLE=Banda El Recodo - Desde El Cielo Y Para Siempre
DYEAR=1900
DGENRE=
TTITLE0=Para Sentir Bonito
TTITLE1=Acabame De Matar
TTITLE2=Si Quieres
TTITLE3=El Bomboncito
TTITLE4=No Se La Van Acabar
TTITLE5=El Chilango Quebrador
TTITLE6=Nomas Por Tu Culpa
TTITLE7=Desde El Cielo
TTITLE8=La Josefina
TTITLE9=El Granero
EXTD=
EXTT0=
EXTT1=
EXTT2=
EXTT3=
EXTT4=
EXTT5=
EXTT6=
EXTT7=
EXTT8=
EXTT9=
PLAYORDER=
